<?xml version="1.0" encoding="UTF-8" standalone="no"?>
<svg
   xmlns:dc="http://purl.org/dc/elements/1.1/"
   xmlns:cc="http://creativecommons.org/ns#"
   xmlns:rdf="http://www.w3.org/1999/02/22-rdf-syntax-ns#"
   xmlns:svg="http://www.w3.org/2000/svg"
   xmlns="http://www.w3.org/2000/svg"
   xmlns:sodipodi="http://sodipodi.sourceforge.net/DTD/sodipodi-0.dtd"
   xmlns:inkscape="http://www.inkscape.org/namespaces/inkscape"
   width="250"
   height="140"
   viewBox="0 0 66.145832 37.041668"
   version="1.1"
   id="svg8"
   inkscape:version="1.0.2-2 (e86c870879, 2021-01-15)"
   sodipodi:docname="add.svg"
   inkscape:export-filename="E:\Projects\App-Faz-Carreira\src\img\add.png"
   inkscape:export-xdpi="96"
   inkscape:export-ydpi="96">
  <defs
     id="defs2">
    <rect
       x="11.109604"
       y="-18.373576"
       width="14.74159"
       height="12.284658"
       id="rect867" />
    <marker
       style="overflow:visible"
       id="Arrow1Lstart"
       refX="0.0"
       refY="0.0"
       orient="auto"
       inkscape:stockid="Arrow1Lstart"
       inkscape:isstock="true">
      <path
         transform="scale(0.8) translate(12.5,0)"
         style="fill-rule:evenodd;stroke:#000000;stroke-width:1.0pt"
         d="M 0.0,0.0 L 5.0,-5.0 L -12.5,0.0 L 5.0,5.0 L 0.0,0.0 z "
         id="path839" />
    </marker>
    <clipPath
       clipPathUnits="userSpaceOnUse"
       id="clipPath886">
      <text
         xml:space="preserve"
         style="font-style:normal;font-weight:normal;font-size:36.1757px;line-height:1.25;font-family:sans-serif;opacity:0.311475;fill:#ff0000;fill-opacity:1;stroke:none;stroke-width:0.904396"
         x="23.463747"
         y="30.461645"
         id="text890"><tspan
           sodipodi:role="line"
           id="tspan888"
           x="23.463747"
           y="30.461645"
           style="font-style:normal;font-variant:normal;font-weight:normal;font-stretch:normal;font-size:36.1757px;font-family:Roboto;-inkscape-font-specification:'Roboto, Normal';font-variant-ligatures:normal;font-variant-caps:normal;font-variant-numeric:normal;font-variant-east-asian:normal;fill:#ff0000;fill-opacity:1;stroke-width:0.904396">+</tspan></text>
    </clipPath>
    <clipPath
       clipPathUnits="userSpaceOnUse"
       id="clipPath863">
      <path
         id="path865"
         style="opacity:0.991803;fill:#800000;fill-opacity:0.308917;stroke-width:0.672351;stroke-linecap:round;stroke-linejoin:round;stroke-dasharray:4.0341, 4.0341"
         d="m 30.638957,9.7911339 v 6.0802491 h -6.080249 v 5.133537 h 6.080249 v 6.080764 h 5.134054 V 21.00492 H 41.85326 V 15.871383 H 35.773011 V 9.7911339 Z" />
    </clipPath>
    <filter
       inkscape:collect="always"
       style="color-interpolation-filters:sRGB"
       id="filter1287"
       x="-0.037947146"
       width="1.0758943"
       y="-0.039957671"
       height="1.0799153">
      <feGaussianBlur
         inkscape:collect="always"
         stdDeviation="0.41570997"
         id="feGaussianBlur1289" />
    </filter>
  </defs>
  <sodipodi:namedview
     id="base"
     pagecolor="#ffffff"
     bordercolor="#666666"
     borderopacity="1.0"
     inkscape:pageopacity="0.0"
     inkscape:pageshadow="2"
     inkscape:zoom="3.4014509"
     inkscape:cx="115.54469"
     inkscape:cy="93.353889"
     inkscape:document-units="px"
     inkscape:current-layer="layer1"
     inkscape:document-rotation="0"
     showgrid="false"
     units="px"
     inkscape:window-width="1920"
     inkscape:window-height="986"
     inkscape:window-x="-11"
     inkscape:window-y="-11"
     inkscape:window-maximized="1" />
  <metadata
     id="metadata5">
    <rdf:RDF>
      <cc:Work
         rdf:about="">
        <dc:format>image/svg+xml</dc:format>
        <dc:type
           rdf:resource="http://purl.org/dc/dcmitype/StillImage" />
        <dc:title />
      </cc:Work>
    </rdf:RDF>
  </metadata>
  <g
     inkscape:label="Layer 1"
     inkscape:groupmode="layer"
     id="layer1">
    <path
       style="color:#000000;font-style:normal;font-variant:normal;font-weight:normal;font-stretch:normal;font-size:medium;line-height:normal;font-family:sans-serif;font-variant-ligatures:normal;font-variant-position:normal;font-variant-caps:normal;font-variant-numeric:normal;font-variant-alternates:normal;font-variant-east-asian:normal;font-feature-settings:normal;font-variation-settings:normal;text-indent:0;text-align:start;text-decoration:none;text-decoration-line:none;text-decoration-style:solid;text-decoration-color:#000000;letter-spacing:normal;word-spacing:normal;text-transform:none;writing-mode:lr-tb;direction:ltr;text-orientation:mixed;dominant-baseline:auto;baseline-shift:baseline;text-anchor:start;white-space:normal;shape-padding:0;shape-margin:0;inline-size:0;clip-rule:nonzero;display:inline;overflow:visible;visibility:visible;isolation:auto;mix-blend-mode:normal;color-interpolation:sRGB;color-interpolation-filters:linearRGB;solid-color:#000000;solid-opacity:1;vector-effect:none;fill:#993399;fill-opacity:1;fill-rule:nonzero;stroke:none;stroke-linecap:round;stroke-linejoin:round;stroke-miterlimit:4;stroke-dasharray:3.19421, 3.19420999999999999;stroke-dashoffset:0;stroke-opacity:1;color-rendering:auto;image-rendering:auto;shape-rendering:auto;text-rendering:auto;enable-background:accumulate;stop-color:#000000;stop-opacity:1;opacity:1"
       d="M 0.26757812 0.001953125 A 0.266184 0.266184 0 0 0 0 0.26757812 A 0.266184 0.266184 0 0 0 0.26757812 0.53320312 L 3.4609375 0.53320312 A 0.266184 0.266184 0 0 0 3.7265625 0.26757812 A 0.266184 0.266184 0 0 0 3.4609375 0.001953125 L 0.26757812 0.001953125 z M 6.65625 0.001953125 A 0.266184 0.266184 0 0 0 6.3886719 0.26757812 A 0.266184 0.266184 0 0 0 6.65625 0.53320312 L 9.8496094 0.53320312 A 0.266184 0.266184 0 0 0 10.115234 0.26757812 A 0.266184 0.266184 0 0 0 9.8496094 0.001953125 L 6.65625 0.001953125 z M 13.042969 0.001953125 A 0.266184 0.266184 0 0 0 12.777344 0.26757812 A 0.266184 0.266184 0 0 0 13.042969 0.53320312 L 16.238281 0.53320312 A 0.266184 0.266184 0 0 0 16.503906 0.26757812 A 0.266184 0.266184 0 0 0 16.238281 0.001953125 L 13.042969 0.001953125 z M 19.431641 0.001953125 A 0.266184 0.266184 0 0 0 19.166016 0.26757812 A 0.266184 0.266184 0 0 0 19.431641 0.53320312 L 22.626953 0.53320312 A 0.266184 0.266184 0 0 0 22.892578 0.26757812 A 0.266184 0.266184 0 0 0 22.626953 0.001953125 L 19.431641 0.001953125 z M 25.820312 0.001953125 A 0.266184 0.266184 0 0 0 25.554688 0.26757812 A 0.266184 0.266184 0 0 0 25.820312 0.53320312 L 29.015625 0.53320312 A 0.266184 0.266184 0 0 0 29.28125 0.26757812 A 0.266184 0.266184 0 0 0 29.015625 0.001953125 L 25.820312 0.001953125 z M 32.208984 0.001953125 A 0.266184 0.266184 0 0 0 31.943359 0.26757812 A 0.266184 0.266184 0 0 0 32.208984 0.53320312 L 35.402344 0.53320312 A 0.266184 0.266184 0 0 0 35.669922 0.26757812 A 0.266184 0.266184 0 0 0 35.402344 0.001953125 L 32.208984 0.001953125 z M 38.597656 0.001953125 A 0.266184 0.266184 0 0 0 38.332031 0.26757812 A 0.266184 0.266184 0 0 0 38.597656 0.53320312 L 41.791016 0.53320312 A 0.266184 0.266184 0 0 0 42.058594 0.26757812 A 0.266184 0.266184 0 0 0 41.791016 0.001953125 L 38.597656 0.001953125 z M 44.986328 0.001953125 A 0.266184 0.266184 0 0 0 44.720703 0.26757812 A 0.266184 0.266184 0 0 0 44.986328 0.53320312 L 48.179688 0.53320312 A 0.266184 0.266184 0 0 0 48.447266 0.26757812 A 0.266184 0.266184 0 0 0 48.179688 0.001953125 L 44.986328 0.001953125 z M 51.375 0.001953125 A 0.266184 0.266184 0 0 0 51.107422 0.26757812 A 0.266184 0.266184 0 0 0 51.375 0.53320312 L 54.568359 0.53320312 A 0.266184 0.266184 0 0 0 54.833984 0.26757812 A 0.266184 0.266184 0 0 0 54.568359 0.001953125 L 51.375 0.001953125 z M 57.763672 0.001953125 A 0.266184 0.266184 0 0 0 57.496094 0.26757812 A 0.266184 0.266184 0 0 0 57.763672 0.53320312 L 60.957031 0.53320312 A 0.266184 0.266184 0 0 0 61.222656 0.26757812 A 0.266184 0.266184 0 0 0 60.957031 0.001953125 L 57.763672 0.001953125 z M 64.150391 0.001953125 A 0.266184 0.266184 0 0 0 63.884766 0.26757812 A 0.266184 0.266184 0 0 0 64.150391 0.53320312 L 65.607422 0.53320312 L 65.607422 1.7382812 A 0.266184 0.266184 0 0 0 65.875 2.0058594 A 0.266184 0.266184 0 0 0 66.140625 1.7382812 L 66.140625 0.26757812 A 0.26621062 0.26621062 0 0 0 65.875 0.001953125 L 64.150391 0.001953125 z M 0.26757812 3.0019531 A 0.266184 0.266184 0 0 0 0 3.2675781 L 0 6.4628906 A 0.266184 0.266184 0 0 0 0.26757812 6.7285156 A 0.266184 0.266184 0 0 0 0.53320312 6.4628906 L 0.53320312 3.2675781 A 0.266184 0.266184 0 0 0 0.26757812 3.0019531 z M 65.875 4.6660156 A 0.266184 0.266184 0 0 0 65.607422 4.9335938 L 65.607422 8.1269531 A 0.266184 0.266184 0 0 0 65.875 8.3925781 A 0.266184 0.266184 0 0 0 66.140625 8.1269531 L 66.140625 4.9335938 A 0.266184 0.266184 0 0 0 65.875 4.6660156 z M 0.26757812 9.390625 A 0.266184 0.266184 0 0 0 0 9.65625 L 0 12.851562 A 0.266184 0.266184 0 0 0 0.26757812 13.117188 A 0.266184 0.266184 0 0 0 0.53320312 12.851562 L 0.53320312 9.65625 A 0.266184 0.266184 0 0 0 0.26757812 9.390625 z M 65.875 11.054688 A 0.266184 0.266184 0 0 0 65.607422 11.322266 L 65.607422 14.515625 A 0.266184 0.266184 0 0 0 65.875 14.78125 A 0.266184 0.266184 0 0 0 66.140625 14.515625 L 66.140625 11.322266 A 0.266184 0.266184 0 0 0 65.875 11.054688 z M 0.26757812 15.779297 A 0.266184 0.266184 0 0 0 0 16.044922 L 0 19.240234 A 0.266184 0.266184 0 0 0 0.26757812 19.505859 A 0.266184 0.266184 0 0 0 0.53320312 19.240234 L 0.53320312 16.044922 A 0.266184 0.266184 0 0 0 0.26757812 15.779297 z M 65.875 17.443359 A 0.266184 0.266184 0 0 0 65.607422 17.708984 L 65.607422 20.904297 A 0.266184 0.266184 0 0 0 65.875 21.169922 A 0.266184 0.266184 0 0 0 66.140625 20.904297 L 66.140625 17.708984 A 0.266184 0.266184 0 0 0 65.875 17.443359 z M 0.26757812 22.167969 A 0.266184 0.266184 0 0 0 0 22.433594 L 0 25.626953 A 0.266184 0.266184 0 0 0 0.26757812 25.894531 A 0.266184 0.266184 0 0 0 0.53320312 25.626953 L 0.53320312 22.433594 A 0.266184 0.266184 0 0 0 0.26757812 22.167969 z M 65.875 23.832031 A 0.266184 0.266184 0 0 0 65.607422 24.097656 L 65.607422 27.292969 A 0.266184 0.266184 0 0 0 65.875 27.558594 A 0.266184 0.266184 0 0 0 66.140625 27.292969 L 66.140625 24.097656 A 0.266184 0.266184 0 0 0 65.875 23.832031 z M 0.26757812 28.556641 A 0.266184 0.266184 0 0 0 0 28.822266 L 0 32.015625 A 0.266184 0.266184 0 0 0 0.26757812 32.283203 A 0.266184 0.266184 0 0 0 0.53320312 32.015625 L 0.53320312 28.822266 A 0.266184 0.266184 0 0 0 0.26757812 28.556641 z M 65.875 30.220703 A 0.266184 0.266184 0 0 0 65.607422 30.486328 L 65.607422 33.681641 A 0.266184 0.266184 0 0 0 65.875 33.947266 A 0.266184 0.266184 0 0 0 66.140625 33.681641 L 66.140625 30.486328 A 0.266184 0.266184 0 0 0 65.875 30.220703 z M 0.26757812 34.943359 A 0.266184 0.266184 0 0 0 0 35.210938 L 0 36.777344 A 0.26621062 0.26621062 0 0 0 0.26757812 37.044922 L 1.8925781 37.044922 A 0.266184 0.266184 0 0 0 2.1601562 36.777344 A 0.266184 0.266184 0 0 0 1.8925781 36.511719 L 0.53320312 36.511719 L 0.53320312 35.210938 A 0.266184 0.266184 0 0 0 0.26757812 34.943359 z M 5.0878906 36.511719 A 0.266184 0.266184 0 0 0 4.8222656 36.777344 A 0.266184 0.266184 0 0 0 5.0878906 37.044922 L 8.28125 37.044922 A 0.266184 0.266184 0 0 0 8.5488281 36.777344 A 0.266184 0.266184 0 0 0 8.28125 36.511719 L 5.0878906 36.511719 z M 11.476562 36.511719 A 0.266184 0.266184 0 0 0 11.208984 36.777344 A 0.266184 0.266184 0 0 0 11.476562 37.044922 L 14.669922 37.044922 A 0.266184 0.266184 0 0 0 14.935547 36.777344 A 0.266184 0.266184 0 0 0 14.669922 36.511719 L 11.476562 36.511719 z M 17.865234 36.511719 A 0.266184 0.266184 0 0 0 17.597656 36.777344 A 0.266184 0.266184 0 0 0 17.865234 37.044922 L 21.058594 37.044922 A 0.266184 0.266184 0 0 0 21.324219 36.777344 A 0.266184 0.266184 0 0 0 21.058594 36.511719 L 17.865234 36.511719 z M 24.251953 36.511719 A 0.266184 0.266184 0 0 0 23.986328 36.777344 A 0.266184 0.266184 0 0 0 24.251953 37.044922 L 27.447266 37.044922 A 0.266184 0.266184 0 0 0 27.712891 36.777344 A 0.266184 0.266184 0 0 0 27.447266 36.511719 L 24.251953 36.511719 z M 30.640625 36.511719 A 0.266184 0.266184 0 0 0 30.375 36.777344 A 0.266184 0.266184 0 0 0 30.640625 37.044922 L 33.835938 37.044922 A 0.266184 0.266184 0 0 0 34.101562 36.777344 A 0.266184 0.266184 0 0 0 33.835938 36.511719 L 30.640625 36.511719 z M 37.029297 36.511719 A 0.266184 0.266184 0 0 0 36.763672 36.777344 A 0.266184 0.266184 0 0 0 37.029297 37.044922 L 40.224609 37.044922 A 0.266184 0.266184 0 0 0 40.490234 36.777344 A 0.266184 0.266184 0 0 0 40.224609 36.511719 L 37.029297 36.511719 z M 43.417969 36.511719 A 0.266184 0.266184 0 0 0 43.152344 36.777344 A 0.266184 0.266184 0 0 0 43.417969 37.044922 L 46.611328 37.044922 A 0.266184 0.266184 0 0 0 46.878906 36.777344 A 0.266184 0.266184 0 0 0 46.611328 36.511719 L 43.417969 36.511719 z M 49.806641 36.511719 A 0.266184 0.266184 0 0 0 49.541016 36.777344 A 0.266184 0.266184 0 0 0 49.806641 37.044922 L 53 37.044922 A 0.266184 0.266184 0 0 0 53.267578 36.777344 A 0.266184 0.266184 0 0 0 53 36.511719 L 49.806641 36.511719 z M 56.195312 36.511719 A 0.266184 0.266184 0 0 0 55.927734 36.777344 A 0.266184 0.266184 0 0 0 56.195312 37.044922 L 59.388672 37.044922 A 0.266184 0.266184 0 0 0 59.654297 36.777344 A 0.266184 0.266184 0 0 0 59.388672 36.511719 L 56.195312 36.511719 z M 62.583984 36.511719 A 0.266184 0.266184 0 0 0 62.316406 36.777344 A 0.266184 0.266184 0 0 0 62.583984 37.044922 L 65.777344 37.044922 A 0.266184 0.266184 0 0 0 66.042969 36.777344 A 0.266184 0.266184 0 0 0 65.777344 36.511719 L 62.583984 36.511719 z "
       id="rect10" />
    <path
       id="rect851"
       style="opacity:0.991803;fill:#f1f1f1;stroke-width:2.54117;stroke-linecap:round;stroke-linejoin:round;stroke-dasharray:15.247, 15.24699999999999989;fill-opacity:1"
       d="M 115.80078 37.005859 L 115.80078 59.986328 L 92.820312 59.986328 L 92.820312 79.388672 L 115.80078 79.388672 L 115.80078 102.37109 L 135.20508 102.37109 L 135.20508 79.388672 L 158.18555 79.388672 L 158.18555 59.986328 L 135.20508 59.986328 L 135.20508 37.005859 L 115.80078 37.005859 z "
       transform="scale(0.26458334)" />
    <path
       id="rect856"
       style="opacity:0.22849462;fill:#000000;stroke-width:0.532368;stroke-linecap:round;stroke-linejoin:round;stroke-dasharray:3.19421, 3.19420999999999999;filter:url(#filter1287)"
       d="M 20.456117,6.5654909 V 31.534512 H 46.748053 V 6.5654909 Z M 31.168124,10.3203 h 5.134055 v 6.08025 h 6.080249 v 5.133537 h -6.080249 v 6.080765 H 31.168124 V 21.534087 H 25.087875 V 16.40055 h 6.080249 z"
       clip-path="url(#clipPath863)" />
  </g>
</svg>
