<?xml version="1.0" encoding="UTF-8" standalone="no"?>
<svg
   xmlns:dc="http://purl.org/dc/elements/1.1/"
   xmlns:cc="http://creativecommons.org/ns#"
   xmlns:rdf="http://www.w3.org/1999/02/22-rdf-syntax-ns#"
   xmlns:svg="http://www.w3.org/2000/svg"
   xmlns="http://www.w3.org/2000/svg"
   xmlns:sodipodi="http://sodipodi.sourceforge.net/DTD/sodipodi-0.dtd"
   xmlns:inkscape="http://www.inkscape.org/namespaces/inkscape"
   id="b7798a4d-5163-44df-883c-b45df1683271"
   data-name="Layer 1"
   width="744"
   height="539.28592"
   viewBox="0 0 744 539.28592"
   version="1.1"
   sodipodi:docname="undraw_education_f8ru.svg"
   inkscape:version="1.0.2-2 (e86c870879, 2021-01-15)">
  <metadata
     id="metadata73">
    <rdf:RDF>
      <cc:Work
         rdf:about="">
        <dc:format>image/svg+xml</dc:format>
        <dc:type
           rdf:resource="http://purl.org/dc/dcmitype/StillImage" />
      </cc:Work>
    </rdf:RDF>
  </metadata>
  <defs
     id="defs71" />
  <sodipodi:namedview
     pagecolor="#505050"
     bordercolor="#eeeeee"
     borderopacity="1"
     objecttolerance="10"
     gridtolerance="10"
     guidetolerance="10"
     inkscape:pageopacity="0"
     inkscape:pageshadow="2"
     inkscape:window-width="1920"
     inkscape:window-height="986"
     id="namedview69"
     showgrid="false"
     inkscape:zoom="0.47484211"
     inkscape:cx="72.999689"
     inkscape:cy="445.05562"
     inkscape:window-x="-11"
     inkscape:window-y="-11"
     inkscape:window-maximized="1"
     inkscape:current-layer="b7798a4d-5163-44df-883c-b45df1683271" />
  <g
     id="g920"
     transform="translate(76.867656)">
    <path
       d="m 702.11417,584.643 v 130 H 376.41542 c -37.109,0 -67.30125,-29.15983 -67.30125,-65 0,-35.84017 30.19221,-65 67.30125,-65 z"
       transform="translate(-228,-180.35704)"
       fill="#f2f2f2"
       id="path2" />
    <path
       d="m 710.11417,713.643 a 5.002,5.002 0 0 1 -5,5 h -334.5 a 68.5,68.5 0 1 1 0,-137 h 334.5 a 5,5 0 0 1 0,10 h -334.5 a 58.5,58.5 0 1 0 0,117 h 334.5 a 5.002,5.002 0 0 1 5,5 z"
       transform="translate(-228,-180.35704)"
       fill="#993399"
       id="path4" />
    <path
       d="m 702.11417,614.643 h -350 a 1,1 0 1 1 0,-2 h 350 a 1,1 0 0 1 0,2 z"
       transform="translate(-228,-180.35704)"
       fill="#cccccc"
       id="path6" />
    <path
       d="m 702.11417,638.643 h -350 a 1,1 0 1 1 0,-2 h 350 a 1,1 0 0 1 0,2 z"
       transform="translate(-228,-180.35704)"
       fill="#cccccc"
       id="path8" />
    <path
       d="m 702.11417,662.643 h -350 a 1,1 0 1 1 0,-2 h 350 a 1,1 0 0 1 0,2 z"
       transform="translate(-228,-180.35704)"
       fill="#cccccc"
       id="path10" />
    <path
       d="m 702.11417,686.643 h -350 a 1,1 0 1 1 0,-2 h 350 a 1,1 0 0 1 0,2 z"
       transform="translate(-228,-180.35704)"
       fill="#cccccc"
       id="path12" />
  </g>
  <g
     id="g912"
     transform="matrix(0.75270511,0.46834373,-0.46834373,0.75270511,370.30516,-171.87729)">
    <path
       d="M 953.83158,609.11391 872.26685,710.34235 618.65167,505.99212 c -28.89608,-23.283 -34.11066,-64.9324 -11.62379,-92.84043 22.48687,-27.90803 64.29244,-31.671 93.18852,-8.388 z"
       fill="#f2f2f2"
       id="path14"
       transform="translate(-228,-180.35704)" />
    <path
       d="m 879.12372,714.583 a 5.002,5.002 0 0 1 -7.03051,0.7563 L 611.62467,505.467 a 68.500002,68.500002 0 0 1 85.95667,-106.6792 l 260.46854,209.87234 a 5,5 0 1 1 -6.27421,7.7868 L 691.30713,406.57463 a 58.5,58.5 0 1 0 -73.40825,91.10558 l 260.46854,209.87232 a 5.002,5.002 0 0 1 0.7563,7.03047 z"
       transform="translate(-228,-180.35704)"
       fill="#cccccc"
       id="path16" />
    <path
       d="M 935.009,632.47432 662.47086,412.877 a 1.0000023,1.0000023 0 1 1 1.25485,-1.55736 L 936.26379,630.917 a 1,1 0 1 1 -1.25484,1.55736 z"
       transform="translate(-228,-180.35704)"
       fill="#cccccc"
       id="path18" />
    <path
       d="M 919.95085,651.16265 647.41276,431.56531 a 1,1 0 0 1 1.25484,-1.55736 l 272.53809,219.59734 a 1,1 0 1 1 -1.25484,1.55736 z"
       transform="translate(-228,-180.35704)"
       fill="#cccccc"
       id="path20" />
    <path
       d="M 904.89274,669.851 632.35466,450.25364 a 1.0000031,1.0000031 0 0 1 1.25484,-1.55737 l 272.53809,219.59734 a 1.0000023,1.0000023 0 1 1 -1.25485,1.55736 z"
       transform="translate(-228,-180.35704)"
       fill="#cccccc"
       id="path22" />
    <path
       d="M 889.83464,688.5393 617.29655,468.942 a 1.0000023,1.0000023 0 1 1 1.25485,-1.55736 l 272.53808,219.5973 a 1,1 0 1 1 -1.25484,1.55736 z"
       transform="translate(-228,-180.35704)"
       fill="#cccccc"
       id="path24" />
  </g>
  <path
     d="M971,719.643H229a1,1,0,0,1,0-2H971a1,1,0,0,1,0,2Z"
     transform="translate(-228 -180.35704)"
     fill="#ccc"
     id="path26" />
  <path
     d="M634.4877,376.4751"
     transform="translate(-228 -180.35704)"
     fill="#ffb8b8"
     id="path40" />
  <g
     id="g955"
     transform="translate(0,55.808025)">
    <path
       d="m 362.09389,163.62672 a 104.44868,104.44868 0 0 1 -42.34814,-9.2749 4.47254,4.47254 0 0 1 -2.65186,-4.104 v -36.41794 a 4.505,4.505 0 0 1 4.5,-4.5 h 81 a 4.50508,4.50508 0 0 1 4.5,4.5 v 36.418 a 4.47272,4.47272 0 0 1 -2.65185,4.104 v 0 a 104.44869,104.44869 0 0 1 -42.34815,9.27484 z"
       fill="#993399"
       id="path58" />
    <path
       d="m 362.08278,134.12379 a 4.50521,4.50521 0 0 1 -1.74865,-0.35156 l -64.23194,-27.09961 a 4.49965,4.49965 0 0 1 0.15308,-8.353004 l 64.23279,-24.36774 a 4.48365,4.48365 0 0 1 3.2113,0.0068 l 63.37207,24.36767 a 4.50012,4.50012 0 0 1 0.15406,8.337904 l -63.37277,27.09915 a 4.507,4.507 0 0 1 -1.76994,0.36035 z"
       fill="#993399"
       id="path60" />
    <circle
       cx="324.59387"
       cy="150.82983"
       r="6"
       fill="#3f3d56"
       id="circle62" />
    <path
       d="m 427.44448,102.8177 -63.37305,27.09918 a 3.99993,3.99993 0 0 1 -3.12744,0.008 l -64.23193,-27.09882 a 3.92451,3.92451 0 0 1 -1.9126,-1.68109 3.997,3.997 0 0 0 1.9126,5.68109 l 64.23193,27.09882 a 3.99993,3.99993 0 0 0 3.12744,-0.008 l 63.37305,-27.09918 a 3.99713,3.99713 0 0 0 1.89453,-5.67322 3.92676,3.92676 0 0 1 -1.89453,1.67322 z"
       opacity="0.2"
       id="path64" />
    <path
       d="m 325.09804,150.8064 a 1,1 0 0 0 1,-1 v -33.46142 l 32.9812,-12.01514 a 1.000111,1.000111 0 0 0 0.0298,-2 l -32.9812,12.01514 a 1.96167,1.96167 0 0 0 -1.43335,0.57519 1.98569,1.98569 0 0 0 -0.59644,1.42481 v 33.46142 a 1.00005,1.00005 0 0 0 1,1 z"
       fill="#3f3d56"
       id="path66" />
  </g>
  <g
     id="g934"
     transform="matrix(0.70651969,0,0,0.70651969,149.1396,14.799632)">
    <path
       d="m 702.11417,584.643 v 130 H 376.41542 c -37.109,0 -67.30125,-29.15983 -67.30125,-65 0,-35.84017 30.19221,-65 67.30125,-65 z"
       transform="translate(-228,-180.35704)"
       fill="#f2f2f2"
       id="path922" />
    <path
       d="m 710.11417,713.643 a 5.002,5.002 0 0 1 -5,5 h -334.5 a 68.5,68.5 0 1 1 0,-137 h 334.5 a 5,5 0 0 1 0,10 h -334.5 a 58.5,58.5 0 1 0 0,117 h 334.5 a 5.002,5.002 0 0 1 5,5 z"
       transform="translate(-228,-180.35704)"
       fill="#993399"
       id="path924" />
    <path
       d="m 702.11417,614.643 h -350 a 1,1 0 1 1 0,-2 h 350 a 1,1 0 0 1 0,2 z"
       transform="translate(-228,-180.35704)"
       fill="#cccccc"
       id="path926" />
    <path
       d="m 702.11417,638.643 h -350 a 1,1 0 1 1 0,-2 h 350 a 1,1 0 0 1 0,2 z"
       transform="translate(-228,-180.35704)"
       fill="#cccccc"
       id="path928" />
    <path
       d="m 702.11417,662.643 h -350 a 1,1 0 1 1 0,-2 h 350 a 1,1 0 0 1 0,2 z"
       transform="translate(-228,-180.35704)"
       fill="#cccccc"
       id="path930" />
    <path
       d="m 702.11417,686.643 h -350 a 1,1 0 1 1 0,-2 h 350 a 1,1 0 0 1 0,2 z"
       transform="translate(-228,-180.35704)"
       fill="#cccccc"
       id="path932" />
  </g>
  <g
     id="g948"
     transform="matrix(0.47593978,0,0,0.47593978,221.69099,36.540185)">
    <path
       d="m 702.11417,584.643 v 130 H 376.41542 c -37.109,0 -67.30125,-29.15983 -67.30125,-65 0,-35.84017 30.19221,-65 67.30125,-65 z"
       transform="translate(-228,-180.35704)"
       fill="#f2f2f2"
       id="path936" />
    <path
       d="m 710.11417,713.643 a 5.002,5.002 0 0 1 -5,5 h -334.5 a 68.5,68.5 0 1 1 0,-137 h 334.5 a 5,5 0 0 1 0,10 h -334.5 a 58.5,58.5 0 1 0 0,117 h 334.5 a 5.002,5.002 0 0 1 5,5 z"
       transform="translate(-228,-180.35704)"
       fill="#993399"
       id="path938" />
    <path
       d="m 702.11417,614.643 h -350 a 1,1 0 1 1 0,-2 h 350 a 1,1 0 0 1 0,2 z"
       transform="translate(-228,-180.35704)"
       fill="#cccccc"
       id="path940" />
    <path
       d="m 702.11417,638.643 h -350 a 1,1 0 1 1 0,-2 h 350 a 1,1 0 0 1 0,2 z"
       transform="translate(-228,-180.35704)"
       fill="#cccccc"
       id="path942" />
    <path
       d="m 702.11417,662.643 h -350 a 1,1 0 1 1 0,-2 h 350 a 1,1 0 0 1 0,2 z"
       transform="translate(-228,-180.35704)"
       fill="#cccccc"
       id="path944" />
    <path
       d="m 702.11417,686.643 h -350 a 1,1 0 1 1 0,-2 h 350 a 1,1 0 0 1 0,2 z"
       transform="translate(-228,-180.35704)"
       fill="#cccccc"
       id="path946" />
  </g>
</svg>
